<svg xmlns="http://www.w3.org/2000/svg" viewBox="0 0 675.95 551.39"><defs><style>.cls-1{fill:#04364a;}.cls-2{font-size:14px;font-family:Roboto-Regular, Roboto;}.cls-3{letter-spacing:-0.02em;}</style></defs><g id="Iran"><path class="cls-1" d="M126.83,35.27l.08.12.44.26.12.07.66.13.71,0-.09.18-.12.12.65.46.37.87.92,3.84.38.81.65.57-.26.48.12.29.78.57.16,0h.34l.24.07.11.15.07.18.1.14,1.12.77.16.2.11.29.25.41.31.38.28.16.25.38.57,1.27.18.41.27.39.21.43.32,2,.2.6.81-.25,3.21,1.07.08-.08.21-.14.28-.11.29,0,.09.25-.08.37v.34l.31.15.43.09.41.26.17.42-.26.59.2.4.27.2.29.17.29.31.12.32.25.85.15.34.29.21.74.34.15.26-.07.41-.13.33-.09.34.06.43.35.42.66.44.7.35.37.09.48.13.64.38.14,0,.24,0,.85,0,1.76.43,2.74,0,1.58.62.71.28,6.5,1.37,2,.93,1.79.45.3,0,2.06-.27.53-.26L172,64.48l.59-.29.41-.09,1.2,0,.75-.24.32-.05.42.1,3.22,1.43.55.16.56,0,.66-.27.5-.31.48-.39.43-.48.35-.57.87-1.8.41-.53.56-.48,1.79-.91.51-.49.51-1.2.38-.59.24-.2.51-.28.24-.2.18-.24.79-1.38.42-.49.47-.39h0l.52-.24h.48l.86.38.46.13.38-.07,1.84-1,.21-.12.33-.38.16-.3.51-1.51,1.12-1.79.11-.39.29-.34,1.48-.91,3.07-1.2.36-.21.93-.52,1-1h0l1.53-2,1-.84,1.29-.72,2.16-.74.69-.08.4-.27,1.63-1.66.55-.31,3.71-2.1,1.32-1.36.48-.49.6-.41.73-.2,2.35,0,.38-.09.32-.3.36-.54h0l.42.11.6.41,1.89,1.77,5.18,6.24,2.11,2,.87,1.19.68,1.44-.32.11-.8.25L233,47.16l-1.93.39-1,.54-.89.86-.57,1.13-.06,1.36.41,1.07.76,1.07,1.75,1.71,1.76.73.47.46.93,2,.16.51v.55l-.15.53v0l-.24.51-.28.42h0l-1.27.79-5.69,1-.11.26v.3l-.09.26-1.61,1-.29.45.07,1.63.61,1.13,2,1.6,4.08,2,.39.33.08.32.14.58-.12.77.05.67,1.5,1.2.48.72.56.53.95,0,1.56-.73h.73l.35.85.22,1.05.39.53.5.45.5.8.52.57.46.65.77,1,.4.51.84,1.41,1,1h.16l1.43.12.74-.21.83-.36.78-.49.61-.62.69-.37h1l2,.42.09,3.46L252,87.75l.22.84.06,2.07.58,1.45.43,4.79,1.27,4.57-.24.75,0,.89.13.84.24.6,1.09,1.78v.4l-.1.35,0,.28.32,1.53.64,1.47,1.56,2.35,2.08,2.16,2.25,1.62,5,2.6,2.3.78,11.86,1.6,1.27-.19,1-.43,1-.19,1.11.58-.3,0-.34-.09-.18,0-.24.31,2.57,1,4,.92L293,124l1,.92-.12,1.4.27.54.4,1.4.28.56.45.7.73,2.09.92,1.53,1.08,1,2.23,1.68,1.52,1.85.47.28.6.18,3.41,2.31.64.15.42.2.91,1,.46.39,4.87,2.66,4.43,3.15,2.59,1.18,8.61,1.71,5.49,1.6,5.7,1,5.49,1.59,5.71-.76,5.07-1.86,5.3-1.31,5.49-1,5.26-1.08,5.28-1.57,5.1-1.58,10.23-2.3,1.38-.23,12.13-.69,2.22-.53,1.5-1.28-.07,1.47-1.75.61-2.19.27-1.41.44-.39.2-.44-.07-.82-.26-.47.07-.85.34-.47.09-1.81-.24h-1.58l.24.44.43.14,1-.05-.61.21-.24,0,.74,1,1.26.57,4.79.43.49.27.52.18,3.86-1.06.37-.3.21-.65v-4l-.17-.66-.45-.27-.58-.23.08-.56.71-1.32-.74-1.14-.49-1.42-.69-3.26-.93-2.53-.14-.55-.29-3.29,8.41.74.61,0,.56-.24.57-.55.57-.38.67,0,.71.1h.69l1.1-.37,5.21-3,.7-.11,1.88.41H430l.46-.22.76-.82.61-.24.38-.37,1.47-1,.78-.66.14-.28.1-.59.42-1,.1-.55,0-.94,0-.27-.14-.26-.37-.33-.11-.21,0-.82.51-1.21.14-.77.16-.62.41-.65.92-1,4.63-3.19,1.44-1.62.24-.41.16-.53.38-.2.43-.07.33-.13.23-.3.33-.71.27-.3.59-.2,1.78-.34.38-.15.28-.62.67-.38,1.41-.47.35,0,.64-.52.63-.33,2.29-1.78.75-.3,2-.09,6.1-1.28h.92l1.91.42,1.2.7.45.16H469l.52.16.84.45.43.14.48,0,4.41-.8,1.24.16.15.06,1,.4.5.07,2.64-.45.49-.36.31-.62.1-.72-.14-.68-.84-1,.19-.54,2-1.8,1-.73,1.12-.43,2.82-.1.53.13.43.27.39.31L490,91l.5-.09,2.47-1.09,1.48-.25.29.06,1.21,1,1.06.61.48.16,4.63.87,1.23.51.63.1.55-.32.43-.38,1-.67.37-.39.62-1.09.09-.1.27-.29.54-.26.34,0,.33,0,.66.22.34.22.09.26v.29l.13.34.71,1.22.56,1.35.36.55,1,1.1.36,1.17.66.94.15.68-.08.66-.6,2.06.78,1,4.43,1.77.49-.07L519,103l.52-.08.52.07,1.57.45,1.5,0,.47-.12h.46l.42.26.38.33.4.26h.26l.5-.12.26.07.21.21.28.59.18.24.47.2.5,0,.52-.12.5,0,1.07.29,4.83,2.32,2,.48,1,.09.49.12.52.25.24.27v.27l-.07.28,0,.3.49.91.11.29.08.71v.54l.15.45.52.43.53.2,2.4.37.39.18.81.58.43.12,2.8-.28.53-.26.42-.64.28-.65.37-.55.48-.35.6,0,.5.26,1.55,1.37,1.33.55.7.11.7-.08.26-.16.2-.23.22-.18h.35l.65.12.32,0,.32-.11.42-.52.07-.58.17-.26,1.85,1,2.39.55,1.22.56.43.32.41.13.9.14.34.19,1,1,4.11,3,.66.06,1.73-.8.71.19.62.59.6.83.14.51-.1.86.19.43.08.32-.12.35-.19.38-.11.43.08.81.6,2.68.36.53,1.93,1.61.58.65.18.26,0,.19-.12.13,0,.1,0,.26-.09.32.09.28.51.13.2.21.24.2.27.13.25,0,1-.39.45.08.52.56.22.6.15.73.21.64.42.33.29-.06.21-.24.36-.57.29-.15.33,0L589,134.7l2,1.72,1.13.66,2.53.46,1.16.5.91,1.23,1.16,2.47,1.42,2.18,3.27,4,.65,1.05.89,2.36.64,1.12,1,.57,4.9-.09,4.31-.08,6.58-.12,3.65-.06,3.16-.06,1.53.27,1.26.17.25,1.31.25.59.12.35.05.49-.05.47-.12.43-.16.37-.19.29-.14.4,0,.47.19.57-.66,3.09-.18,1.87.44,1.1-.1.15-.05.11-.08.26.29.13.25.2.19.23.13.23.12.4.06.4v.88l.1.38.45.74.46,2.38.08,1.15,0,.19-.06.24-.32.42-.16.27-.09.34-.06.37v.35l-.12.41-.26.19-.29.12-.19.18-.09.46.11.77,0,.35-.38.4-.63.52-.35.45.42.19.76.12.62.34.54.5.49.61.32.52.28.64.19.67.14,1.37.11.57,0,.62-.2.85.2.28v.37l-.21.9,0,.21,0,.68-.09.26-.42.42-.12.22.08,1,.42.86.75,1.16.23.36.32,1.55.08.76-.19.79-.42.72-.72.88-.34.73-.27,1.19-.17.38-.64.88-.18.41-.14.78.14,2-.25.67-.59.33-.74.13-.65,0-.44.36-.19.81,0,.8,0,.37.17.16.15.37v.36l-.31.16-.18.17.15.38,1.1,1.48.09.16-.06.43-.09.33,0,.31.33.35-.75,1.05-.22.54-.19,1.55L629,216l-.1.73-.09.36-.44.71-.1.47,0,.38.14.7,0,.33-.13,1.33-.25,1.24-.94.32-.18.62-.6,1.07-1,.77-.56.65,0,.89.1,1-.12.91-.32.43-.36.08-.4,0-.43.07-.42.24-.2.25-.16.3-1.39,1.6-.61.41-.76.22-1.69.23-.77.39-.45.79.32.05.27.15.2.25.26.9.27.26.76.34.37.34.3.44.49,1,2.29,3,.35.7-2.3.14-3.13.19-2.18.13.21.79-.48.53-1.46.78-1.08,1.13-1,1.26-.86,1.76-.19,1.66,0,.5.34,3.23.88,5.67-.06,1.46-1,2.15-.24,1.22.76,2.7,2,1.88,2.49,1,2.41.18,2.27-.12,1.19.09,1,.26.48.28.52.47.28.53,0,.06-.24.41-.45.16-1.46.1-.55.37-.09.53.11.61.06.64-.17.74-.33.42-1,.63-.89.79-1.17,1.6-1.5,2-1.68,2.27-1.49,2-.18.51,0,2.91.45,2.35.88,3,1.05,3.55,1.07,3.66,1.14,3.86,1.25,4.23,1.36,5.07,1,3.9-.06,3-.41,2.9-.19.6-.81,1.05-.23.55.1.23.26.15.18.2-.26.8.06.38.15.35.12.39.06.79-.23,2.25.07,1.75.42,3.36-.39,2.68.07.85.47,1.74.36,3.39,1,.44,3.11.45,5.16.76h0l5.23.77,6.05.88,3.56.52,1.69.25.79.31.61.49,1.1,1.4.21.67L649,353v.72l.3.73.83,1.37.26.81,0,1.06.08.37.54,1.15.37,1.17.15.72v.7l-.22.76-.58,1.17.13.42.12,2.46-.19.1-.07.25,0,.65,0,0,.08.19-.53.56-2.54,3.08-3.9,4.72-3.53,4.28-2.51,3-3.33,4-1.75,2.09-2.54,3-4.77,5.7h0l-2.34,2.75-1.78,2.09,2.49,3,1.63,1.93,2,2.42,2.32,2.78,2.42,2.89,2.53,3,.6.49.65.26.55.39.28.89-.06.69-.36,1.24v.7l.29.72,1,1.08.4.61.09.39.08.89.16.4.33.37.28.1.29,0,.33.17.32.51.16.6.23.51.53.22.3.25.09.3-.1.32-.29.3-.22.23-.09.22.07.2.24.19.4.18.35.28.27.36,1.3,3,.18.69.07.59.16.52.89,1,.88,1.94.9,1.1,3.18,2.89,1.28,1.67,2,1.82,1,1.13.57.31,1.85.52,1.47.85.93.29,2.05.18,1,.21,2.57,1.15,4.07.83.86.44.35.43.27.47.31.42.51.29.51.16.32.21.21.35.2.61.45.76,1.95,2.11.62.4,5.05-1,.68.42.15,1.22-.45,3.59-.49,4,.57,2.41.8,3.35.19,2.08.26,2.81.15,1.75.3,3.21.16,1.81-.18,1.44-1.62,3.66.6.73.15.38-.05.56-.15.5-.18.39-.31.23-.49,0,1.34,1.19.46.25h.24l.43-.25.21,0,.25.08.73.4,1,.22.84,0,1.79-.36.8-.12,1.62-.5.82,0,.51.05h.4l1.68-.54h.32l.38.14.8.73.35.22.76.28.28.18.33.36.44.65,1.05,2.33-.53-.21h-.67l-.61.26-.34.56-.11.34-.33.48-.13.34,0,.41.15,3.91.28.64.38.57.26.55-.1.64-.46.42-1.25.2-.51.27-.22.54-.25,5-.32,1.38-.7.68h-.31l-.24-.13-.22-.16-.27-.12-.29,0-.9.21-1.22,0-1.2-.18-2.79-.07-2.41-.06-2.1-.06-.34.1-.23.32-.32.59-.21.16-.23.12-.26.1-1,.22-.26,0-.34-.17-.33-.07-.27.16-.24.26-.26.2-.63.22-5.16.55-.29.09-.24.19-.26.44-.17.17-.32.08-.65,0-.29,0-.26.12-.4.29L667,520l-.6.24-.27.17-.19.26-.06.3.09.23.12.19,0,.22-.32.6-1,1-.22.43.17.79.3.63,0,.49-.67.36-1.16-.17-1.37-.48-1.16-.16-.52.84-.11.84-.28.36-1.28.21-.63.2-.57.28-1.11.74-3.72,1.06-.74.58-.45.93-.27,1.06-.28,2.09-.24,1.85-.3,2.13-.39,2.86-.32,2.39-.17.6-.47.57-.54.13-.59,0-.66.16-.65.9.16,1.26.34,1.36-.09,1.18-.2.26-.45.45-.18.33-.1.49-.13,2-.19,2.93-.21,3.39-.19,2.88-1,2.84-.2-.5-.06-.57-.54-.39-.09-.2-.15-.11-.3.2-.09.19,0,.55-.1.21.17.16.31.36.17.16-.66-.08-.5-.2h-.51l-.67.52.73.23.3.17.26.3-.17.33-.48.62-.14.36v.18l0,.13-.24.23-.45.24-1.68.5.45.32-.72,1-5.19-1.79-1.8-.38v-.56l-.47-.85-4.3-1.54-5-.85-4.29-1-2.91-.36-.5-.28.47-.44-.75-1.08-.09-.46v-1.91l-.1-.3-1.12-1.12-.48-.28-.54-.07-.55.06-2.12.65-.53.29-.29.47-.48.58-.25.38v.22l.1.22.12.69.15.09.21,0,.34.16h.27l.13.09.12.21.33.35-.34-.05v.08l.9.46-.09.44-.36-.09-1-.42-1.25-.52-.63-.35-1.33,0-.9-.74.29-.54.14-.13-.45-.21-.56-.08-1.12,0-.85.17-.18.07-.28.31v.2l.08.17.64.44-.21.63h-.84l-.62-.42-.33-.11-1.06-.15-.24-.19-.34-.44-.49-.27-1.13.08-1.57.23-1.65.07-1.14.85-1.3-.45-1.29-1.23-1.39-.36-3.57.22h-1.39L581,558.4l-1.47-1.49-1.12-.62-1.75.33-3.64.59-.87.13-1.71.27-1.76.83-.65.15-.26-.05-.23-.22-.23-.15-.26.06-.29.14-.28.07-.71,0-.61-.13-.52-.22-.4-.34-1.43-2.28-.75-.92-1.21-.55-1.07,0-.29-.14-.19-.32-.11-.34-.17-.28-.35-.11H556l-5.6-1-1.92.3-1.65-.11-.58-.27.22-.55-.9.06-1,.19-.42.22-.71.6-.47.12-.21-.09-.1-.14h-.16l-.36.33-.24.18-.32.1-.27,0-.11-.24-.18.09-1.09.75-1.13.18-1-.19-1-.32-1-.16-.83-.38-.68-.92-.92-2-1-1.17-1.17-.28-1.27.34-1.25.64-1,.86-.68.42h-.49l.13-1.5.12-.4.09-.17v-.12l0-.27-.32-.78-.48-.42-.65-.17-.77,0-.69.07-1.71.39-.37-.07-.65-.32-.36-.07-.35,0-.61.16-.32,0-.77-.06-2.1-.66.23-.21-4.12-.28-.45-.24-.22-.53-.18-1.68-.75-1.74-.38-1.39-.26-.65-.31-.28-.05-.13-.68-.83-.14,0-.39.06-.13,0-.05-.14-.08-.4-.42-1.24-.13-.57-.3-.67-.06-.4.19-.72,1-1,.34-.68-.43-1.1-2-2.25.17-.92-.23-.22-.18-1.55-.22-.77-.34-.62-.59-.58-.14-.26-.09-.3-.11-.79v-.32l.52-4.29-.1-1.61-2-8-.42-.61-1.05-.92-.37-.54,0-.56-1-.63-.31-.34.45,0,.33-.13.31-.2.38-.17-.26-.24,0-.32.11-.34.19-.28-.95.41-.31.06-.29-.07-.18-.16-.13-.17-.15-.07-.16-.12-.16-.23-.21-.14-.6.3-.19-.12-.07-.28v-.36l-.39.09-.22-.18V502l.3-.13.15-.12.54-.59.26-.21v-.26l-.9-.13-.74-.5-.5-.72-.19-.78-.36.35-.39.14h-.84l-.46-.16-.29-.33-.23-.33-.29-.15-3.2,0-.7-.22-.21.26-.75-.42-.92-.19-1.93-.1-.91-.18-1.62-.65-.95-.14-1.91.11-1,.25-.71.49-.66.32-2,.09-.82.16-.25.17-.51.51-.1.17-.07.36-.16.12-.24.05-.27.18-.53.45-2.07,1.25-.75.64v.14l-.16.11-.56.49-.34.11-1.37.16-1.28.31-.33,0-1,0-.34.07-.45.33-.28.07h-1.15l-1-.22h-.31l-.58.26-1,1-.4.21-.34.26-1.67,1.86.45-.14.19-.11.22-.22.13.85-.19,1-.36,1-.44.7-1,.9-1.17.59-1.29.26-1.38-.08-2.48-.86-1.42-.19-1.17.56-.37.66-.16.62-.3.45-.75.18-.6.07-1.36.4-.46.21-2,1.81-.34.22-3,2.41-3.35,2-.21.18-.19.23-.23.2-.32.08-.39-.07-.52-.31-.37-.07-2.64.23-1.36-.21-.52-.78-.38-1-.91-.85-1.37-.27-2.81.11-1.11-.55-.56-.89-.46-1.1-.58-1-.91-.75-.66-.13-.61.1-.6.17-2.35.17-.64-.07-2.12-.62-.53-.09-.33-.1-.6-.48-.25-.13h-.32l-.64.13-2,1-1.41.19-1.26.36-.68,0-1.37-.44-.76-.07-.72.39-.37-.13-1.62-1.4-2.31-1.37-3-2.26-.44-.55-.18-.67-.07-1.65-.25-.68-.52-.65-1-.62-10.48-3.57L381,500l-.66-.19-.41-.46-.33-.55-.38-.48-1.84-.46-.28-.34-.27-.76-.63-.38-1.42-.42-2.48-2.24-1.1-.75-1.64-.73-2.39-1.06-.64-.67-.05-.71.29-.45.52-.22.64-.07.58,0,.67-.07.38-.34-.27-.81-.49-.43-1.26-.48-.46-.39-.25-.41-.49-1.14-.21-.35-2.32-2.39-1-.81-1.13-.49-5.49-1.21-1.16-.58-3.64-3.39-1.13-.77-1.28-.53-1.46-.2-2.14.26-.49-.15-.58-.37-1.1.08-1.19.28-1.93.36-1.21-.19-2.67-.56-.36-.09-.16-.22,0-.34-.1-.26-.16-.17-1-.14-1.32-.39-.66-.72-.71-1.19L331,470l-.24,1-.63.06-.61-2.09-.61-.87-.47-1.27-1.16-1.9-.53-.5-.64-.67-.15-.7.68-1.88-.05-.93-.63-1-1.07-1-.38-.46-1.09-1.69-1-1.08-.23-.36L320.26,450l-.26-1.1,0-4.47-.39-1.52-.69-1.29-.79-.94-1-.61-1.3-.31-1.25-.07-.61-.16-.26-.38-.24-.69L312,436.58l-.25-.67-.19-1,.12-.87.64-.38.6.21.61.51.5.64.3.59.33-.29,0-.26-.14-.29,0-.39.22-.25.62-.56.21-.37.1-.77-.07-.82-.3-.5-.57.14-.26-1-.21-.36-.38-.33-.18.05-.29.15-.25.08-.12-.16,0-.59-.06-.3-.12-.19-.73-.13-2.41.15-.56.1-.82.49-.86-.11-.68-.6-.27-1-.06-.86.09-.43.28-.43.21-.48.2-.58.29-.26.46.5.14-1.44.07-.25-.29-.1-.2-.21-.37-.68.22-.86v-1.38l-.16-1.4-.24-1-.41-.73-.59-.82-.48-.23V417l-.18-.39-.88-1.33L303,413.92l-.27-.46-.21-.61-.48-.68-1-1-1.82-.73-.29-.37-.19-.71-.45-.68-.83-.93-.82-1.19L295.2,404l-.75-1.09-.57-.51-1.28-.78-1.2-1.24-.11-.16-.09-.43,0-.65-.11-.38.48-.06.11-.21-.18-.25-.41-.21.33-1.2-.71-2,.18-.93-.43-.35-.49-.65-.4-.72-.17-.59-.18-.37-.45-.31-.25-.1-.82-.32-1.11-.13-1.14.17-1.13.4-9.67,6.19-1.12.48-1-.22-.86-1.27-.08-.58v-1.61l-.24-.62-.23-.32-.07-.19-.12-.16-.33-.2-.3-.12-.29-.07-.67-.05-.33,0-.67.17-.37,0-.34-.07-.45-.33-.26-.08-.63.11-1.16.49-.63.13-.81-.06-.29-.31,0-1.47-.09-.11-.43-.3-.13-.21v-.73l.05-.27.13-.23,0-.23-.37-.24-.17.61-.33.59-.44.42-.53.08-.56-.35-.26-.45-.33-.36-.54-.05-.71-.26-2-1.19-.42-.4L256,386l-.54-.72-.8-.42-1-.26L254,384l.52-.14,1.26.22.66,0,1-.35.57-.08.62.15,1.27.67.43.15.69.07.51.22.42.38.4.55.18-.48.59-1,.9-1.16.18-.39,0-.61-.64.13-.46-.3-.28-.55-.24-1.31-.37.17-.48.52-.48.36,0-.45,0-.12.12-.16-.25-.4-.27.06-.31.24-.43.1-.19-.13-.34-.49-.21-.11-.2,0-.28.16-.16,0-.62-.09-.55-.17-.53,0-.52.29-1.11-.16-.88.55-.22.74.83.36,1,.2.77.49.24.63-.61.63h-.52l-1.67-.22-.35.1-1.69,1.58-.12.16-.27.42-.16.45.35.32-.12.26-.21.28-.1.19.23.77.53.55.63.47.5.56.26.63.2.81.18,1.6-.06.45-.28.73-.09.41,0,.38.18.67,0,.41-.2.7-.41.63-.55.46-.64.17-2.09-.24-.54.24-.6-.28-2.15,0-1.31-.72-.5-.12-.08.62.15.43.41.67.08.49-.09.35-.22.31-.28.25-.27.17-.7.22-2.27-.22v-.24l-.16.21,0,.09-.22-.1-1-.27-.45-.28-.43-.34-.2-.2-.15-.24-.27-.69-.06-.46-.57-1.77-.08-.06-.17-.37-.62-.7-.39-.83L237,393l.07-.4.24-.3.3-.26.22-.31.08-.38-.06-.39-.15-.36-.21-.3-1.19-1.1-1-1.13L234.7,387l-.29-.25-.37-.12-.39,0-1.13.19h-.37l-.36-.05-.35-.16-.24-.26-.14-.34-.25-1.57-.28-.78-.4-.7-.51-.56-.32-.2-.34-.12-3.27-.47,0-1.1.1-17.27-.1-.46-.33-.2H215.19l.11-8.7.08-6.19,4.69-12.81.19-.82-.09-.77-.42-.65-1.22-.92-.49-.55-.11-.27-.16-.64-.17-.33-.24-.22-.56-.36-.21-.3-1.1-2-.15-.64h0l-.3-.65-1.08-.53-.47-.54-.7-1.58-.46-.66-.06-.1-.6-.25-.47-.06-.27-.31-.25-.37-.4-.25-.48-.14-.21-.17,0-.28.07-.51.12-.4.18-.32.17-.35,0-.51L210,318l-.6-.46-.16-.46-.3-.15-.2-.21-.55-.76-.11-.2-.15-.2-.92-.88-.14-.21-.2-.49v-.18l.12-.14.28-.68.17-.2.11-.24-.05-.42-.17-.27-.82-.63-.52-.66-.35-.57-.39-.46-.66-.34-1.75-.6-.43,0-1.41.78-.55.21-1.08.11-1-.21-.93-.49-1-.73h0L187,300.06l-1.28-1.46-2-1.22-1.41-1.15-.12-.07-2.88-1.67-.86-.87-3.07-1.47-3.28-1-3.63.4-1.81-.21-.65-1.48h0l.38-.45.51-.42.46-.47.2-.63-.18-.5-.44-.4-.58-.25-1.35-.15-.43-.37,0-.45.62-.35.67-.06.52,0,.5-.1.65-.49.83-.83.43-.52L169,283l0-.33-.36-.23-.14-.34,0-.31.19-.7v-.38l-.27-.62-.43-.44-1-.8-1.23-1.74-1-1-.16-.54,0-.61-.09-.75-.25-.7-.35-.64-1-1.3-.09-.07-.1-.05-.11-.07,0,0-.16,0-.15,0-.16.09-.57.54-.93.12-.91-.22-.53-.45.48-.63,1.46-.9.38-.56-.22-.82-.65-.45-.54-.55.12-1.14-.67.17-1.5,0-.56.24-.9.86-.5.34-.54.14-.21-.26v-1.32l-.11-.27L155,266l-1.45-1-.47-.47-.42-.6-.31-.61-.21-.65-.13-.75-.22-.62-.41-.44-.47-.4-.42-.46-2.74-5-.06,0-.07,0h-.07l-.91.14-.8-.05-.7-.4-.64-.89.66-.3.3-.21.25-.26h0l.47-1,.26-.95.35-.83.75-.66.45-.48,1.25-1,.31-.42v-.41l-.18-.32-.22-.33L149,246l.06-.35.43-.7.16-.34.41-1.79.06-.92-.17-.85-.47-.73-.64-.41h-.69l-.61.5L147,240l-.4-.81-1-3.08.3-.49,1.62-.36.22-.21.2-.23.18-.27.14-.3,0-1.11-.26-1.51.13-1,1.2.36,1.06.55,1,.23,2.12.17.68.24.18,0,.13-.24.08-.4v-.4l-.09-.24-.35-.49-.1-.63V229l-.1-.7-.13-.27-.15-.18-.15-.23-.1-.4-.11-.3-.22-.27-.28-.22-.26-.15-.46-.52.24-.6.86-1,.09-.43-.07-.76.1-.45.3-.43.39-.16.88-.09.85-.6.16-.92-.06-.95.2-.72.72,0,.55.3.36.19.84.29.46-.62.24-.92.26-.69.08-.71-.28-1h0l-.09-.51v-.5l.15-.43.33-.33.2-.07.44,0,.18-.09.07-.18-.09-.46,0-.18.43-.71.21-.08.46.15.65.43.32.13.39,0,.93.4.49-.13.45-.42.82-.5.32,0,.55.15.78-.26.38-.08.33-.18.25-.45-.64-.75.42-1.06.66-1.15.12-1-.46-.39h-1.2l-.43-.3-.08-.59.27-.48.38-.46.17-.38.06-.16-.22-1.11-.74-.86-1.7-1.52-2-3.17-.4-1.09v-.35l.08-.31.16-.25.24-.19.13-.15,0-.15,0-.16-.12-.16-.34-.72-.27-.77.14,0h.15l.94.29.08-.52-.29-1.46v-.62l.11-.67.24-.6.39-.44.64-.22,2.15.07.64-.15,1.54-.82,1.21.07.65-.08.48-.46.42-.62.94-.6.48-.44.36-.63.07-.59-.23-.51L173,184l-.66-.06-.55.27-.53.37-.59.21-1.3.29-.67,0-.62-.27-.25-.21-.19-.21-.13-.26-.15-.78-.15-.13-.23,0-.94-.36h-.51l-.5.18-.6.35-.62.2-2-.09-1,.34-.32,0-.32-.1-.31,0-.75.65-.59.29-.64.05-.5-.35-.34-.07-1.17.35-.55-.15-.38-.5-.79-2-1.43-2-.91-.84-.84-.16-.4-.25-1.14-1.06-1.19-.44-.68-.25-.81,0-1,.51-.55.15h0l-.61.42-.68.23-.66-.09-.55-.56h0l-.2-.62.18-.78.38-.79.38-.6.13-.77-.39-.77-1-1.24-.15-.81.07-1.76-.14-.73-.45-.45-.57-.45-.18-.46.75-.48-.58-.75-.21-.66-.08-1.65-.15-.89-.33-1-.55-.68-.78-.06-1.72.69-.9.07-.84-.39-.35-.41-.12-.35,0-.38-.14-.49-.25-.37-.27-.26-.19-.31,0-.55-.4-.43-.48-.42-.12-.09-.44-.58.06-.61.14-.09.38-.15.09-.08,0-.81.33-1.31.6-1.39,0-.72-.33-.83-.75-1.38-.46-.62-.51-.28h-.4l-.36-.12-.32-.23-.29-.34-.38-.34-.45-.07-.95.05-.81-.18-.61-.41-.24-.67.33-.95,1.09-1.35.43-.69.16-.93-.14-.86-.29-.63-.17-.68.17-1,.34-.43.05-.42-.2-.35-.68-.35-.35-.39-.21-.12-.3,0-.61.19-.29-.07-.14-.19-.15-.59-.12-.25-.23-.16-.23-.07-.22-.1-.18-.26-.24-.69v-.38l.42-1.11.19-.75-.19-.65-.29-.66-.1-.78.22-.69.38-.33.43-.25.36-.47.09-1.26-.69-.81-1.78-1.15-.26-.52-.18-.55-.28-.35-1.12.17-.29-.33-.43-1.11-.48-.36-1.15-.1-.41-.24-.19-.64.41-1.16-.12-.65h0l-.17-.79.06-1,.2-1,.28-.78-.12-.66-.69-.53-.62-.7.13-1.18L119,113l1.06-.86.32-.51-.07-.36-1.13-1.39-.77-.67-.86-.4-.84.1-.4.22-.49.18-.43-.05-.23-.44,0-.23.12-.63,0-.19-.23-.18-.2,0-.21.08-.24-.08-.35-.45-.17-.48-.12-.45-.18-.36-.33-.23-1.11-.54-.37-.11-2,.23-1.08-.17-.54-.86.09-.29,0-.14.32-.4.27-.42,0-.5-.16-.55.06-.5.19-.47.26-.51h0l.29-.56.74-.85.27-.6.26-.82.28-.5.41-.32.59-.29.17-.25-.25-.73.05-.34.25-.23.55-.23.23-.31.2-.57.19-.77.1-.76-.13-1.89.87-1,1.12-.88.69-1,0-.62-.23-.62-.38-.53-.44-.38-.48-.18-.39.08-1,.59-1.54-.28-.45-.21-.28-.2-.09-.35.1-.64,0-.36-.1-1v-.46l.4-1.59,0-.68-.28-2,.14-1.56v-.82l-.22-.65-.23-.26-.23-.16-.56-.18-.39-.2.1-.24.27-.27.13-.29-.15-.71-.16-.47,0-.5.12-.79.84-2.86L110.43,67l-1.64-.79-.5-.48-.42-.6-.29-.89-.14-.3-.1-.3,0-.33,0-.36-.24-.25-.28-.22-.18-.28-.13-.61-.1-.27-.17-.28h0l.44-.74.5-.42.29-.47-.28-1.56.15-.63L108,56l-.26-1-1.18-.84-1.38-.73-.79-.61,0-.34.21-.73,0-.35-.37-.79-.11-.34v-.35l.07-.27v-.29l-.36-.79-.18-.85-.14-.38h0l-.81-1-.19-.48.34-.49.63-.39.46-.17h.48l.69.08.71-.07,1.67-.45.74.08,2.13,1.07.78.06.68-.16,1.6-.73.59-.44.52-.79v-.72l-.1-.75.15-.9h0l.31-.47,0-.48-.1-.51-.07-.57.07-.65.14-.54,1-2.06.18-.52,0-.15.06-.48L116,33.38l.14-.45,3.27-2.7.76-.23.48.34.83,1.26.42.48,1.85.87.6.51Zm299.66,492,.21.1.17.13.15.19.12.24-.65,1.32-.17,0-.36-.11-.36-.19-.17-.2,0-.45-.07-.34v-.32l.12-.4.19-.27.27-.13.29.06Zm-15.09-6.16-2.28-.13h-.24l-1-.48-.63-1,.31-.49.46-.34.55-.17.6,0,.51.17,1.15.12.44.17.06.15,0,.08h0v.35l0,.24h0l.22.12.13.11.08.07,0,.2,0,.21-.08.21-.06.21Zm-22.19-10.74-.56.32h-.6l-1.75-.31-.54-.23-.07,0-.41-.27-1-.81-.27-.32.12-.15.22,0,.24-.09.3,0,2.6.8,2.31.17.72.29.4.37.26.23-.45.12-1.18-.1Zm92.65-1.19.14-.92.44-.64.78-.36,1.16-.11.16,1.06-.93.82-1.18.38Zm-3.39-5.83.61.14.78.35.5.38.18.14.24.64-.49.29-.5.28-1.9.49-.68.61-.7,1.55-.36.6-1.27,1.31-.2.46-.27.28-1.17.6-.27.31-.26.17-1.52,1.47-.9.53-.71-.31-.67-.68-.79-.62-2.06,1.06-.57.49-.58.33h-.66l-1.4-.2-.62.14-.66.31-1.66,1.19-1.73.73-1,.78-.54.28-1.91.22-1.35.37-.57.37-.29.11h0l-.09,0-.17,0-.35-.11h-.31l-.13.29-.14.24L451,519l-.38.12-.28,0h0l-.13-.09-.11-.08-.16-.39-.15-.85.21-.61.06-.39-.16-.18-.32-1.07.34-.36,1.45.51.34-.15.19,0,.09,0h0l1.63-.92,4.12-1.34.6-.07.39-.15.11,0h0l1.43-.87.61-.5,2-.79.32,0,.64.05.31,0,.22-.09.32-.27.3-.11-.09-.23-.14-.24.47-.54.11-.65-.14-1.54-.24-.59-.53-.51-.51-.4-.21-.27.78-.46,4.31,1.63,1.16-.27,3.26-2.11,4.07-.92Zm8-3.57.33.22.36.14.29.23v.07l.11.44-.12.44-.29.32-.22.11-.2.1-.48.08-1-.38.07-.87.57-.79ZM296.36,424l.56.26.33.19-.14.61.09.61-.2.54-.31.05-.3-.28-.31-.78-.19-.7-.22-.41.36-.22ZM427.11,540.38l.16.3.05.62-.31.23-.42-.1-.49-.23-.12-.38.4-.22Zm41.55-25.89.24.36.06.82-.44.74-.63.37-.5-.28.08-.79.39-.77.5-.39Zm-69.52-.32.37.17.24.51-.4.41-.54-.08-.54-.27-.3-.43.24-.37.62,0Zm43.45,27.61,0,.33.14.39-.25.22-.25,0-.17.11-.3-.29-.14.12v-.22l-.1-.2-.11-.34.45-.24.53-.15Z" transform="translate(-102.41 -30)"/></g><g id="Copyright"><text class="cls-2" transform="translate(579.23 547.59)">© <tspan class="cls-3" x="14.46" y="0">V</tspan><tspan x="23.07" y="0">emaps.com</tspan></text></g></svg>